<?xml version="1.0" encoding="UTF-8" standalone="no"?>
<!DOCTYPE svg PUBLIC "-//W3C//DTD SVG 1.1//EN" "http://www.w3.org/Graphics/SVG/1.1/DTD/svg11.dtd">
<svg width="100%" height="100%" viewBox="0 0 835 230" version="1.1" xmlns="http://www.w3.org/2000/svg" xmlns:xlink="http://www.w3.org/1999/xlink" xml:space="preserve" xmlns:serif="http://www.serif.com/" style="fill-rule:evenodd;clip-rule:evenodd;stroke-linejoin:round;stroke-miterlimit:2;">
    <g transform="matrix(0.200208,0,0,0.200208,162.458633,93.397176)">
        <g transform="matrix(1,0,0,1,-757.026501,-434.580141)">
            <clipPath id="_clip1">
                <rect x="0" y="0" width="1514.053" height="869.16"/>
            </clipPath>
            <g clip-path="url(#_clip1)">
                <g id="_-fefefeff" serif:id="#fefefeff" transform="matrix(4.166667,0,0,4.166667,-680.306832,-1474.666667)">
                    <path d="M344.96,496.62C333.587,508.034 322.343,519.567 310.92,530.93C305.29,536.38 300.23,542.5 293.66,546.91C278.78,558.35 259.56,563.58 240.92,562.34C222.7,561.18 205.08,553.5 191.51,541.33C179.49,530.65 170.92,516.32 166.58,500.88C161.65,483.73 162.32,465.14 168.01,448.26C173.97,430.39 186.25,414.88 201.89,404.47C196.4,387.56 190.38,370.83 184.9,353.92C201.44,362.67 217.91,371.55 234.34,380.5C243.39,385.26 252.9,389.18 262.85,391.6C277.21,395.17 291.08,401.78 301.75,412.18C316.01,426.94 330.91,440.775 344.96,455.735C359.01,440.775 373.91,426.94 388.17,412.18C398.84,401.78 412.71,395.17 427.07,391.6C437.02,389.18 446.53,385.26 455.58,380.5C472.01,371.55 488.48,362.67 505.02,353.92C499.54,370.83 493.52,387.56 488.03,404.47C503.67,414.88 515.95,430.39 521.91,448.26C527.6,465.14 528.27,483.73 523.34,500.88C519,516.32 510.43,530.65 498.41,541.33C484.84,553.5 467.22,561.18 449,562.34C430.36,563.58 411.14,558.35 396.26,546.91C389.69,542.5 384.63,536.38 379,530.93C367.577,519.567 356.333,508.034 344.96,496.62ZM285.32,436.57C273.48,424.39 255.62,418.35 238.82,420.88C215.92,423.94 196.41,442.88 192.25,465.55C189.69,478.66 191.38,492.89 198.4,504.42C206.28,518.28 220.09,528.85 235.83,531.96C249.83,535.09 264.86,531.71 276.69,523.76C281.41,520.58 285.14,516.24 289.15,512.26C301.12,500.38 312.9,488.31 325.01,476.57C311.94,463.08 298.54,449.91 285.32,436.57ZM404.6,436.57C391.38,449.91 377.98,463.08 364.91,476.57C377.02,488.31 388.8,500.38 400.77,512.26C404.78,516.24 408.51,520.58 413.23,523.76C425.06,531.71 440.09,535.09 454.09,531.96C469.83,528.85 483.64,518.28 491.52,504.42C498.54,492.89 500.23,478.66 497.67,465.55C493.51,442.88 474,423.94 451.1,420.88C434.3,418.35 416.44,424.39 404.6,436.57Z" style="fill:white;"/>
                </g>
            </g>
        </g>
    </g>
    <g transform="matrix(1.278395,0,0,1.278395,-330.039458,-538.801706)">
        <rect x="634.509" y="452.792" width="17.573" height="108.049" style="fill:white;"/>
    </g>
    <g transform="matrix(1.278395,0,0,1.278395,-330.039458,-538.801706)">
        <path d="M664.473,595.696L664.475,579.286L675.027,579.286C681.998,579.286 686.355,577.688 689.405,569.265L691.438,563.891L662.538,489.099L681.272,489.099L699.716,541.381L719.176,489.099L737.475,489.099L702.33,576.817C696.957,590.178 689.353,594.205 677.641,595.304C672.829,595.756 668.445,595.784 664.473,595.696Z" style="fill:white;"/>
    </g>
    <g transform="matrix(1.278395,0,0,1.278395,-330.039458,-538.801706)">
        <path d="M765.213,560.842L747.496,560.842L747.496,489.099L763.906,489.099L763.908,492.561C768.118,485.77 778.574,486.921 788.305,486.921C806.313,486.921 815.607,498.103 815.607,516.692L815.607,560.842L797.89,560.842L797.89,520.904C797.89,508.85 791.935,503.041 782.786,503.041C771.894,503.041 765.213,510.593 765.213,522.211L765.213,560.842Z" style="fill:white;"/>
    </g>
    <g transform="matrix(1.278395,0,0,1.278395,-330.039458,-538.801706)">
        <path d="M576.117,560.854L547.618,489.026L566.52,489.026L579.025,522.032C582.078,530.61 584.55,538.026 585.422,541.952C586.44,537.444 589.057,529.883 592.111,522.032L605.197,489.026L623.517,489.026L593.565,560.854L576.117,560.854Z" style="fill:white;"/>
    </g>
    <g transform="matrix(1.278395,0,0,1.278395,-330.039458,-538.801706)">
        <path d="M540.119,560.854L511.621,489.026L530.523,489.026L543.027,522.032C546.081,530.61 548.553,538.026 549.425,541.952C550.443,537.444 553.078,529.831 556.131,521.98L564.627,543.378L557.567,560.854L540.119,560.854Z" style="fill:white;"/>
    </g>
    <g transform="matrix(0.261366,0,0,0.261366,651.414585,32.089369)">
        <g transform="matrix(166.845558,0,0,166.845558,664.588521,331.633137)">
        </g>
        <text x="283.847px" y="331.633px" style="font-family:'Satoshi-Bold', 'Satoshi';font-weight:700;font-size:166.846px;fill:white;">MCP</text>
    </g>
</svg>
